<svg xmlns="http://www.w3.org/2000/svg" width="1920" height="1200" viewBox="0 0 1920 1200"><defs><linearGradient id="base" x1="0" y1="0" x2="1" y2="1"><stop stop-color="#ffe0c2"/><stop offset=".42" stop-color="#eaa27c"/><stop offset="1" stop-color="#853c74"/></linearGradient><linearGradient id="wave" x1="0" y1="0" x2=".8" y2="1"><stop stop-color="#ffe9c7"/><stop offset=".42" stop-color="#efa8b4"/><stop offset=".8" stop-color="#b85b89"/><stop offset="1" stop-color="#672b66"/></linearGradient><linearGradient id="blue" x1="0" y1="0" x2="1" y2="1"><stop stop-color="#ffe4ad"/><stop offset=".42" stop-color="#e9956c"/><stop offset="1" stop-color="#b55c86"/></linearGradient></defs><rect width="1920" height="1200" fill="url(#base)"/><path d="M-200 1140C300 150 440-280 1080-160s300 920 1140 1160v320H-200z" fill="url(#wave)"/><path d="M-80 1250C80 500 520 690 840 910s600 150 720-320 350-440 500-250v920z" fill="url(#blue)"/><path d="M-100 1200C270 730 600 1110 930 1120s820-210 1150-160v320H-100z" fill="#75346f" opacity=".3"/></svg>
